# xmcd
# 
# Track frame offsets:
#     150
#     15960
#     29702
#     62157
# 
# Disc length: 1133
# 
# Revision: 0
# Processed by: cddbd v1.5.2PL0 Copyright (c) Steve Scherf et al.
# Submitted via: BonkEnc v1.0.8
# 
DISCID=2b046b04
DTITLE=Express Of Sound - Real Vibration-Want Love
DYEAR=1996
DGENRE=Club
TTITLE0=Real Vibration-Want Love (Real Radio Edit)
TTITLE1=Real Vibration-Want Love (Mission Accomplished Edit)
TTITLE2=Real Vibration-Want Love (Real Club Mix)
TTITLE3=Power Bass (Bass Club Mix)
EXTD=
EXTT0=
EXTT1=
EXTT2=
EXTT3=
PLAYORDER=
